<?xml version="1.0" encoding="UTF-8"?>
<svg id="Layer_2" data-name="Layer 2" xmlns="http://www.w3.org/2000/svg" viewBox="0 0 868.62 176.47">
  <defs>
    <style>
      .cls-1, .cls-2, .cls-3, .cls-4, .cls-5, .cls-6, .cls-7, .cls-8, .cls-9 {
        fill: #8b9191;
      }

      .cls-1, .cls-2, .cls-3, .cls-4, .cls-5, .cls-6, .cls-7, .cls-8, .cls-9, .cls-10, .cls-11 {
        stroke: #000;
        stroke-miterlimit: 10;
      }

      .cls-1, .cls-11 {
        stroke-width: .88px;
      }

      .cls-2 {
        stroke-width: .51px;
      }

      .cls-3, .cls-10 {
        stroke-width: 1.13px;
      }

      .cls-4 {
        stroke-width: 1.15px;
      }

      .cls-5 {
        stroke-width: 1.2px;
      }

      .cls-6 {
        stroke-width: .78px;
      }

      .cls-7 {
        stroke-width: 1.02px;
      }

      .cls-8 {
        stroke-width: .55px;
      }

      .cls-9 {
        stroke-width: .54px;
      }

      .cls-10, .cls-11 {
        fill: #444348;
      }
    </style>
  </defs>
  <g id="Layer_2-2" data-name="Layer 2">
    <g>
      <g>
        <g>
          <path class="cls-5" d="M31.21,89.73v3.2s1.46,0,1.46,0v3.1s5.18,0,5.18,0v2.27s6.41,0,6.41,0v1.44s6.19,0,6.19,0v2.58s5.85,0,5.85,0v1.03s5.4,0,5.4,0v1.55s2.81,0,2.81,0v1.08s3.83,0,3.83,0c0,0,32.49,10.85,70.6,19.38v1.82s3.79,0,3.79,0v1.75s5.29,0,5.29,0v1.03s5.85,0,5.85,0v1.44s4.95,0,4.95,0v1.14s7.88,0,7.88,0v2.17s14.4,0,14.4,0v1.03s8.44,0,8.44,0v3.2s13.95,0,13.95,0v3.51s18.27,0,18.27,0v3.13s13.5,0,13.5,0v1.51s22.81,0,22.81,0v2.34s31.06,0,31.06,0v1.65s2.7,0,2.7,0v2.75s3.15,2.2,8.4,2.2c5.25,0,8.55-2.06,8.55-2.06v-2.34h3.15v4.4s0,1.51,0,1.51h24.61v3.71s28.06,0,28.06,0v3.58s6.68,0,6.68,0v2.06s68.65,0,68.65,0h183.21s0-3.1,0-3.1h97.68s0-2.89,0-2.89h40.74s0-2.68,0-2.68h23.18s4.39-4.02,4.39-4.02h21.49s0-3.2,0-3.2h17.56s0-2.68,0-2.68h14.4s0-1.65,0-1.65l23.48-3.44v-32.68h1.95s0-49.53,0-49.53h-1.58v-29.93s-53.94-7.98-53.94-7.98v-1.79s-21.16-.96-21.16-.96l-6-3.3h-22.21v-1.79s-36.31,0-36.31,0v-2.06s-40.66,0-40.66,0v-1.93s-111.18-1.24-128.74-2.48v-1.24s-133.69,0-133.69,0h-52.22s0,3.85,0,3.85h-30.31s-6.45,4.27-6.45,4.27h-18.01s-6.6,1.79-6.6,6.47h-1.5v-1.79s-5.7-2.06-12,0l-5.25,4.68v2.61h-33.01s-.98.89-.98.89h-17.93s0,2.41,0,2.41h-16.96s0,2.34,0,2.34h-18.31s0,3.85,0,3.85h-14.7s0,2.48,0,2.48h-20.86s0,4.54,0,4.54h-16.05s0,3.16,0,3.16c0,0-63.47,13.07-89.88,22.7h-2.42s0,1.15,0,1.15h-5.8s0,.88,0,.88h-2.59s0,.98,0,.98v.84h-7.05s0,1.51,0,1.51h-4.28s0,1.51,0,1.51h-4.28s0,1.51,0,1.51h-1.73s0,1.65,0,1.65h-1.95s0,2.48,0,2.48h-1.8s0,3.71,0,3.71H.6s0,3.54,0,3.54l30.61-.1Z"/>
          <path class="cls-5" d="M34.51,90.92l.04-6.4h.58s0-2.67,0-2.67h1.35s0-1.36,0-1.36h1.35s0-1.5,0-1.5h4.21s0-1.7,0-1.7h4.21s0-1.45,0-1.45h7.07s0-1.21,0-1.21h2.64s0-.87,0-.87h5.78s0-1.18,0-1.18h1.07s59.68-15.99,91.41-20.64v-3.41h15.94s0-4.46,0-4.46h20.95s0-4.16,0-4.16l14.22.1h19.6s.03-4.79.03-4.79l18.06-.02v-3.13h50.39s0-2.79,0-2.79l20.81-.41-.16-8.46,26.94.07v-4.4s29.03-.1,29.03-.1h4.04s0-4.23,0-4.23c0,0,99.52.52,178.84,0v2.27s128.71,1.75,128.71,1.75v2.58s40.71-.07,40.71-.07v4.07s36.07,0,36.07,0v1.55s24.1,0,24.1,0l6.29,2.85,18.33.52v1.55s54.55,7.5,54.55,7.5v27.55s2.54,0,2.54,0v43.97h-2.54s0,30.29,0,30.29l-22.67,3.78v1.75h-14.03s0,2.62,0,2.62h-17.62s0,2.52,0,2.52h-20.54s-5.05,4.07-5.05,4.07h-23.57s0,1.78,0,1.78h-41.08s0,2.85,0,2.85h-97.28s0,2.85,0,2.85h-245v-2.33s-7.63,0-7.63,0v-4.46s-26.34,0-26.34,0v-4.27s-24.92,0-24.92,0v-3.49s-8.53,0-8.53,0h-15.94v-1.36s-31.43,0-31.43,0v-2.33s-22.75,0-22.75,0v-2.07s-12.42,0-12.42,0v-2.33s-19.01,0-19.01,0v-3.75s-14.37,0-14.37,0v-2.85s-8.38,0-8.38,0v-1.03s-13.92,0-13.92,0v-1.79s-8.38,0-8.38,0v-.87s-5.33,0-5.33,0v-1.26s-5.78,0-5.78,0v-1.21s-5.11,0-5.11,0v-1.36s-4.1,0-4.1,0v-2.17s-70.98-17.72-70.98-17.72h-3.22v-1.29s-2.54,0-2.54,0v-1.16s-4.94,0-4.94,0v-1.36s-6.21,0-6.21,0v-2.33s-6.73,0-6.73,0v-1.49s-5.69,0-5.69,0v-1.94s-5.61,0-5.61,0l-.04-3.18Z"/>
          <g>
            <g>
              <rect class="cls-4" x="600.91" y="17.22" width="4.95" height="8.81" transform="translate(581.76 625.01) rotate(-90)"/>
              <rect class="cls-4" x="568.03" y="14.75" width="4.95" height="8.81" transform="translate(551.35 589.65) rotate(-90)"/>
            </g>
            <rect class="cls-4" x="605.73" y="-12.77" width="9.08" height="37.98" transform="translate(604.05 616.48) rotate(-90)"/>
            <polygon class="cls-4" points="536.38 9.74 534.32 6.35 526.61 6.35 526.61 1.95 528.81 .57 557.98 .57 557.98 10.2 536.38 9.74"/>
            <line class="cls-4" x1="538.86" y1=".57" x2="544.63" y2="9.91"/>
          </g>
          <g>
            <g>
              <rect class="cls-4" x="600.91" y="147.25" width="4.95" height="8.81" transform="translate(451.74 755.04) rotate(-90)"/>
              <rect class="cls-4" x="568.03" y="148.55" width="4.95" height="8.81" transform="translate(417.55 723.46) rotate(-90)"/>
            </g>
            <rect class="cls-4" x="606.35" y="149.38" width="9.08" height="37.98" transform="translate(442.52 779.25) rotate(-90)"/>
            <polygon class="cls-4" points="535.69 166.92 532.94 170.5 527.02 170.5 527.02 174.14 529.88 175.9 558.26 175.9 558.26 166.92 535.69 166.92"/>
            <line class="cls-4" x1="538.44" y1="175.9" x2="543.71" y2="166.92"/>
          </g>
        </g>
        <g>
          <polygon class="cls-3" points="513.87 131.52 548.4 131.52 548.4 143.12 523.91 143.12 523.91 160.32 452.77 160.32 452.77 145.92 441.35 145.92 441.35 136.78 446.93 136.78 455.55 125.72 469.84 125.72 513.87 126.18 513.87 131.52"/>
          <polygon class="cls-3" points="513.87 42.48 548.4 42.48 548.4 30.88 523.91 30.88 523.91 13.68 452.77 13.68 452.77 28.08 441.35 28.08 441.35 38.22 449.06 38.22 458.04 48.28 469.84 48.28 513.87 47.82 513.87 42.48"/>
          <polygon class="cls-3" points="513.87 125.72 513.87 132.45 474.51 132.45 474.51 125.72 454.15 125.72 454.15 122.18 443.14 113.38 443.14 60.85 455.94 48.45 474.51 48.45 474.51 41.65 513.87 41.65 513.87 125.72"/>
          <path class="cls-3" d="M513.87,125.72h24.77v2.67s48.98,0,48.98,0v-4s0-3.44,0-3.44h27s1.86-6.49,5.68-8.79c3.82-2.3,7.22-4.8,7.22-15.1,0-10.3,0-22.93,0-22.93,0,0-.14-7.3-7.57-12.85-7.43-5.55-8.88-8.61-8.88-8.61h-30.19v-6.81s-42.52,0-42.52,0v1.6h-24.49s0,18.8,0,18.8h-38.66s0,5.8,0,5.8h-23.73s0,29.95,0,29.95h22.91v4.65s39.42,0,39.42,0l.07,19.07Z"/>
          <path class="cls-3" d="M580.18,112.23v18.88s22.91,0,22.91,0c0,0,4.2-8.97,4.13-18.88h-27.04Z"/>
          <path class="cls-3" d="M580.18,62v-18.88h22.91s4.2,8.97,4.13,18.88h-27.04Z"/>
          <polyline class="cls-3" points="366.09 117.38 337.23 117.28 315.87 95.78 315.87 76.58 337.12 57.59 366.09 57.58"/>
          <polyline class="cls-3" points="359.76 108.45 337.2 108.45 324.81 98.58 324.81 76.18 338.3 65.91 359.76 65.91"/>
          <polygon class="cls-3" points="387.9 117.38 364.99 117.38 356.05 104.58 356.05 69.91 364.58 57.58 387.9 57.58 387.9 117.38"/>
          <rect class="cls-3" x="377.4" y="68.08" width="59.8" height="38.8" transform="translate(319.82 494.78) rotate(-90)"/>
          <path class="cls-3" d="M413.85,84.8h54.6v3.54c0,1.01-.82,1.83-1.83,1.83h-50.79c-1.09,0-1.98-.89-1.98-1.98v-3.39h0Z" transform="translate(353.67 528.63) rotate(-90)"/>
          <rect class="cls-3" x="405.28" y="81.6" width="54.6" height="11.76" transform="translate(345.1 520.06) rotate(-90)"/>
          <rect class="cls-3" x="382.8" y="68.08" width="49" height="38.8" transform="translate(319.82 494.78) rotate(-90)"/>
          <polygon class="cls-3" points="387.9 108.42 379.03 108.42 372.01 101.61 372.01 73.35 378.89 66.55 387.9 66.55 387.9 108.42"/>
          <polygon class="cls-3" points="493.09 101.4 505.61 101.4 511.53 93.24 511.53 80.92 505.75 72.83 493.09 72.83 493.09 101.4"/>
          <g>
            <ellipse class="cls-3" cx="488.88" cy="87.11" rx="15.29" ry="14.82"/>
            <ellipse class="cls-10" cx="488.88" cy="87.11" rx="12.26" ry="11.88"/>
          </g>
          <g>
            <ellipse class="cls-3" cx="456.37" cy="87.11" rx="15.29" ry="14.82"/>
            <ellipse class="cls-10" cx="456.37" cy="87.11" rx="12.26" ry="11.88"/>
          </g>
          <g>
            <ellipse class="cls-1" cx="483.27" cy="53.7" rx="11.92" ry="11.55"/>
            <ellipse class="cls-11" cx="483.27" cy="53.7" rx="9.56" ry="9.26"/>
          </g>
          <g>
            <ellipse class="cls-1" cx="483.27" cy="119.46" rx="11.92" ry="11.55"/>
            <ellipse class="cls-11" cx="483.27" cy="119.46" rx="9.56" ry="9.26"/>
          </g>
          <polyline class="cls-3" points="532.76 125.72 542.8 106.38 546.38 106.38 546.38 68.11 542.94 68.11 532.61 47.45"/>
          <polyline class="cls-3" points="528.87 125.72 538.91 106.38 542.48 106.38 542.48 68.11 539.04 68.11 528.72 47.45"/>
          <line class="cls-3" x1="542.48" y1="102.73" x2="546.38" y2="102.73"/>
          <line class="cls-3" x1="542.48" y1="99.18" x2="546.38" y2="99.18"/>
          <line class="cls-3" x1="542.48" y1="95.65" x2="546.38" y2="95.65"/>
          <line class="cls-3" x1="542.48" y1="92.58" x2="546.38" y2="92.58"/>
          <line class="cls-3" x1="542.48" y1="88.51" x2="546.38" y2="88.51"/>
          <line class="cls-3" x1="542.48" y1="85.23" x2="546.38" y2="85.23"/>
          <line class="cls-3" x1="542.48" y1="81.58" x2="546.38" y2="81.58"/>
          <line class="cls-3" x1="542.48" y1="78.65" x2="546.38" y2="78.65"/>
          <line class="cls-3" x1="542.48" y1="75.11" x2="546.38" y2="75.11"/>
          <line class="cls-3" x1="542.48" y1="71.83" x2="546.38" y2="71.83"/>
          <line class="cls-3" x1="537.55" y1="65.23" x2="541.44" y2="65.23"/>
          <line class="cls-3" x1="536" y1="61.68" x2="539.89" y2="61.68"/>
          <line class="cls-3" x1="534.17" y1="58.15" x2="538.07" y2="58.15"/>
          <line class="cls-3" x1="532.49" y1="55.08" x2="536.38" y2="55.08"/>
          <line class="cls-3" x1="531.04" y1="52.15" x2="534.94" y2="52.15"/>
          <line class="cls-3" x1="529.84" y1="49.58" x2="533.73" y2="49.58"/>
          <line class="cls-3" x1="537.38" y1="109.18" x2="541.27" y2="109.18"/>
          <line class="cls-3" x1="535.88" y1="112.33" x2="539.77" y2="112.33"/>
          <line class="cls-3" x1="534.54" y1="114.93" x2="538.43" y2="114.93"/>
          <line class="cls-3" x1="533.2" y1="117.48" x2="537.09" y2="117.48"/>
          <line class="cls-3" x1="530.37" y1="122.63" x2="534.26" y2="122.63"/>
          <line class="cls-3" x1="531.71" y1="119.83" x2="535.6" y2="119.83"/>
          <g>
            <g>
              <polygon class="cls-3" points="351.78 117.38 367.19 120.05 367.19 122.32 374.9 122.32 383.15 129.92 390.03 129.92 390.03 117.38 351.78 117.38"/>
              <path class="cls-3" d="M426.29,141.12h-4.75s-11.35-9-19.4-10.2c-8.05-1.2-12.11-1-12.11-1v-12.53h36.26v23.73Z"/>
            </g>
            <g>
              <polygon class="cls-3" points="351.78 57.58 367.19 54.91 367.19 52.65 374.9 52.65 383.15 45.05 390.03 45.05 390.03 57.58 351.78 57.58"/>
              <path class="cls-3" d="M426.29,33.85h-4.75s-11.35,9-19.4,10.2c-8.05,1.2-12.11,1-12.11,1v12.53s36.26,0,36.26,0v-23.73Z"/>
            </g>
          </g>
          <g>
            <path class="cls-3" d="M455.18,126.18l-8.26,10.6h-23.94s-5.57-6.4-5.57-6.4v-12.8s9.56.03,9.56.03v-2.83h14.84s1.32,0,1.77-1.04l10.56,8.44v3.53s1.03.47,1.03.47Z"/>
            <polyline class="cls-3" points="421.4 118.18 421.4 129.92 423.88 132.85 443.97 132.85 448.37 126.18 448.37 118.18"/>
          </g>
          <g>
            <path class="cls-3" d="M458.04,48.28l-8.43-10.06h-26.62s-5.57,6.4-5.57,6.4v12.8s9.56-.03,9.56-.03v2.83h14.84s1.32,0,1.77,1.04l10.04-10.48,1.96-2.17,2.44-.33Z"/>
            <polyline class="cls-3" points="421.4 56.82 421.4 45.08 423.88 42.15 443.97 42.15 448.37 48.82 448.37 55.78"/>
          </g>
          <rect class="cls-3" x="426.29" y="33.85" width="14.86" height="4.37"/>
          <rect class="cls-3" x="426.29" y="136.78" width="14.86" height="4.37"/>
        </g>
      </g>
      <g>
        <g>
          <polygon class="cls-7" points="143.01 112.35 146.17 115.1 150.3 115.1 150.3 109.73 143.01 109.73 143.01 112.35"/>
          <polygon class="cls-7" points="143.01 62.68 146.17 59.93 150.3 59.93 150.3 65.29 143.01 65.29 143.01 62.68"/>
        </g>
        <g>
          <polygon class="cls-6" points="128.59 106.94 131.01 109.05 134.17 109.05 134.17 104.94 128.59 104.94 128.59 106.94"/>
          <polygon class="cls-6" points="128.59 68.91 131.01 66.81 134.17 66.81 134.17 70.91 128.59 70.91 128.59 68.91"/>
        </g>
        <g>
          <polygon class="cls-9" points="116.09 101.44 117.78 102.91 119.97 102.91 119.97 100.05 116.09 100.05 116.09 101.44"/>
          <polygon class="cls-9" points="116.09 75.01 117.78 73.55 119.97 73.55 119.97 76.4 116.09 76.4 116.09 75.01"/>
        </g>
        <g>
          <rect class="cls-2" x="68.65" y="93.2" width="10.91" height="2.03"/>
          <ellipse class="cls-2" cx="67.29" cy="94.22" rx="1.83" ry="2.95"/>
          <ellipse class="cls-8" cx="81.09" cy="94.22" rx="2.12" ry="2.95"/>
        </g>
        <g>
          <rect class="cls-2" x="68.65" y="79.57" width="10.91" height="2.03"/>
          <ellipse class="cls-2" cx="67.29" cy="80.59" rx="1.83" ry="2.95"/>
          <ellipse class="cls-8" cx="81.09" cy="80.59" rx="2.12" ry="2.95"/>
        </g>
      </g>
    </g>
  </g>
</svg>