<?xml version="1.0" encoding="UTF-8"?>
<svg id="Layer_2" data-name="Layer 2" xmlns="http://www.w3.org/2000/svg" viewBox="0 0 578.12 149.97">
  <defs>
    <style>
      .cls-1 {
        stroke-width: .87px;
      }

      .cls-1, .cls-2, .cls-3, .cls-4, .cls-5, .cls-6, .cls-7, .cls-8 {
        fill: #8b9191;
      }

      .cls-1, .cls-2, .cls-3, .cls-4, .cls-5, .cls-6, .cls-7, .cls-8, .cls-9, .cls-10, .cls-11, .cls-12 {
        stroke: #000;
        stroke-miterlimit: 10;
      }

      .cls-2 {
        stroke-width: .88px;
      }

      .cls-3 {
        stroke-width: .66px;
      }

      .cls-4, .cls-9 {
        stroke-width: .75px;
      }

      .cls-5, .cls-10 {
        stroke-width: .96px;
      }

      .cls-6 {
        stroke-width: .43px;
      }

      .cls-7 {
        stroke-width: .46px;
      }

      .cls-8 {
        stroke-width: .47px;
      }

      .cls-9, .cls-10 {
        fill: #444348;
      }

      .cls-11 {
        fill: #6e7775;
      }

      .cls-11, .cls-12 {
        stroke-width: .92px;
      }

      .cls-12 {
        fill: #7c8986;
      }
    </style>
  </defs>
  <g id="Layer_2-2" data-name="Layer 2">
    <g>
      <g>
        <g>
          <path class="cls-11" d="M21.67,76.26v2.72s1.01,0,1.01,0v2.63s3.59,0,3.59,0v1.93s4.44,0,4.44,0v1.23s4.29,0,4.29,0v2.19s4.05,0,4.05,0v.88s3.74,0,3.74,0v1.32s1.95,0,1.95,0v.92s2.65,0,2.65,0c0,0,22.51,9.23,48.91,16.48v1.55s2.62,0,2.62,0v1.49s3.66,0,3.66,0v.88s4.05,0,4.05,0v1.23s3.43,0,3.43,0v.97s5.46,0,5.46,0v1.84s9.98,0,9.98,0v.88s5.85,0,5.85,0v2.72s9.67,0,9.67,0v2.98s12.66,0,12.66,0v2.66s9.36,0,9.36,0v1.29s15.8,0,15.8,0v1.99s21.52,0,21.52,0v1.4s1.87,0,1.87,0v2.34s2.18,1.87,5.82,1.87c3.64,0,5.93-1.75,5.93-1.75v-1.99h2.18v3.74s0,1.29,0,1.29h17.05v3.16s19.44,0,19.44,0v3.04s4.63,0,4.63,0v1.75s47.56,0,47.56,0h126.93s0-2.63,0-2.63h67.68s0-2.46,0-2.46h28.22s0-2.28,0-2.28h16.06s3.04-3.42,3.04-3.42h14.89s0-2.72,0-2.72h12.16s0-2.28,0-2.28l.06-29.51,1.97-.04,1.78-.05-.16-44.72-3.59.1-.39-30.08-10.53-2.14v-1.52s-14.66-.82-14.66-.82l-4.16-2.81h-15.39v-1.52s-25.16,0-25.16,0v-1.75s-28.17,0-28.17,0v-1.64s-77.03-1.05-89.2-2.11v-1.05s-92.63,0-92.63,0h-36.18s0,3.28,0,3.28h-21s-4.47,3.63-4.47,3.63h-12.48s-4.57,1.52-4.57,5.5h-1.04v-1.52s-3.95-1.75-8.32,0l-3.64,3.98v2.22h-22.87s-.68.76-.68.76h-12.42s0,2.05,0,2.05h-11.75s0,1.99,0,1.99h-12.68s0,3.28,0,3.28h-10.19s0,2.11,0,2.11h-14.45s0,3.86,0,3.86h-11.12s0,2.69,0,2.69c0,0-43.97,11.11-62.27,19.3h-1.68s0,.98,0,.98h-4.02s0,.75,0,.75h-1.79s0,.83,0,.83v.72h-4.89s0,1.29,0,1.29h-2.96s0,1.29,0,1.29h-2.96s0,1.29,0,1.29h-1.2s0,1.4,0,1.4h-1.35s0,2.11,0,2.11h-1.25s0,3.16,0,3.16H.46s0,3.01,0,3.01l21.21-.09Z"/>
          <path class="cls-12" d="M23.95,77.27l.03-5.44h.4s0-2.27,0-2.27h.93s0-1.15,0-1.15h.93s0-1.28,0-1.28h2.92s0-1.44,0-1.44h2.92s0-1.24,0-1.24h4.9s0-1.03,0-1.03h1.83s0-.74,0-.74h4.01s0-1,0-1h.74s41.35-13.59,63.33-17.55v-2.9h11.04s0-3.79,0-3.79h14.52s0-3.54,0-3.54l9.85.09h13.58s.02-4.07.02-4.07l12.51-.02v-2.66h34.91s0-2.37,0-2.37l14.42-.35-.11-7.19,18.66.06v-3.74s20.12-.09,20.12-.09h2.8s0-3.6,0-3.6c0,0,68.96.44,123.91,0v1.93s89.18,1.49,89.18,1.49v2.19s28.2-.06,28.2-.06v3.46s24.99,0,24.99,0v1.32s16.69,0,16.69,0l4.36,2.42,12.7.44v1.32s11.71,1.98,11.71,1.98l.46,27.82h2.5v37.38h-2.71s.41,30.45.41,30.45v2.23h-12.21s0,2.14,0,2.14h-14.23s-3.5,3.46-3.5,3.46h-16.33s0,1.51,0,1.51h-28.46s0,2.42,0,2.42h-67.4s0,2.42,0,2.42h-169.74v-1.98s-5.29,0-5.29,0v-3.79s-18.25,0-18.25,0v-3.63s-17.26,0-17.26,0v-2.97s-5.91,0-5.91,0h-11.04v-1.15s-21.78,0-21.78,0v-1.98s-15.76,0-15.76,0v-1.76s-8.61,0-8.61,0v-1.98s-13.17,0-13.17,0v-3.19s-9.95,0-9.95,0v-2.42s-5.81,0-5.81,0v-.88s-9.64,0-9.64,0v-1.53s-5.81,0-5.81,0v-.74s-3.69,0-3.69,0v-1.07s-4.01,0-4.01,0v-1.03s-3.54,0-3.54,0v-1.15s-2.84,0-2.84,0v-1.84s-49.18-15.06-49.18-15.06h-2.23v-1.1s-1.76,0-1.76,0v-.99s-3.42,0-3.42,0v-1.15s-4.3,0-4.3,0v-1.98s-4.67,0-4.67,0v-1.26s-3.94,0-3.94,0v-1.65s-3.89,0-3.89,0l-.03-2.71Z"/>
          <g>
            <g>
              <rect class="cls-2" x="415.99" y="15.31" width="4.21" height="6.1" transform="translate(399.74 436.46) rotate(-90)"/>
              <rect class="cls-2" x="393.21" y="13.2" width="4.21" height="6.1" transform="translate(379.06 411.57) rotate(-90)"/>
            </g>
            <rect class="cls-12" x="419.01" y="-7.9" width="7.72" height="26.31" transform="translate(417.61 428.12) rotate(-90)"/>
            <polygon class="cls-12" points="371.67 8.25 370.24 5.37 364.91 5.37 364.91 1.63 366.43 .46 386.64 .46 386.64 8.65 371.67 8.25"/>
            <line class="cls-2" x1="373.39" y1=".46" x2="377.39" y2="8.4"/>
          </g>
          <g>
            <g>
              <rect class="cls-2" x="415.99" y="125.85" width="4.21" height="6.1" transform="translate(289.2 547) rotate(-90)"/>
              <rect class="cls-2" x="393.21" y="126.96" width="4.21" height="6.1" transform="translate(265.31 525.32) rotate(-90)"/>
            </g>
            <rect class="cls-12" x="419.43" y="129.95" width="7.72" height="26.31" transform="translate(280.19 566.4) rotate(-90)"/>
            <polygon class="cls-12" points="371.2 141.88 369.29 144.92 365.19 144.92 365.19 148.02 367.17 149.51 386.83 149.51 386.83 141.88 371.2 141.88"/>
            <line class="cls-2" x1="373.1" y1="149.51" x2="376.75" y2="141.88"/>
          </g>
        </g>
        <g>
          <polygon class="cls-12" points="386.77 111.78 416.13 111.78 416.13 121.64 395.31 121.64 395.31 136.27 334.83 136.27 334.83 124.02 325.13 124.02 325.13 116.26 329.86 116.26 337.19 106.85 349.34 106.85 386.77 107.25 386.77 111.78"/>
          <polygon class="cls-12" points="386.77 36.09 416.13 36.09 416.13 26.23 395.31 26.23 395.31 11.6 334.83 11.6 334.83 23.85 325.13 23.85 325.13 32.46 331.68 32.46 339.31 41.02 349.34 41.02 386.77 40.62 386.77 36.09"/>
          <polygon class="cls-12" points="386.77 106.85 386.77 112.57 353.32 112.57 353.32 106.85 336 106.85 336 103.85 326.65 96.36 326.65 51.7 337.53 41.16 353.32 41.16 353.32 35.38 386.77 35.38 386.77 106.85"/>
          <path class="cls-11" d="M386.77,106.85h21.06v2.27s41.64,0,41.64,0v-3.4s0-2.93,0-2.93h22.96s1.58-5.52,4.83-7.47c3.25-1.96,6.14-4.08,6.14-12.84,0-8.76,0-19.5,0-19.5,0,0-.12-6.21-6.43-10.92-6.32-4.72-7.55-7.32-7.55-7.32h-25.67v-5.79s-36.14,0-36.14,0v1.36h-20.82s0,15.98,0,15.98h-32.87s0,4.93,0,4.93h-20.18s0,25.46,0,25.46h19.48v3.95s33.51,0,33.51,0l.06,16.21Z"/>
          <path class="cls-12" d="M443.15,95.39v16.05s19.48,0,19.48,0c0,0,3.57-7.62,3.51-16.05h-22.99Z"/>
          <path class="cls-12" d="M443.15,52.68v-16.05h19.48s3.57,7.62,3.51,16.05h-22.99Z"/>
          <polyline class="cls-12" points="261.14 99.76 236.6 99.68 218.45 81.4 218.45 65.08 236.51 48.93 261.14 48.92"/>
          <polyline class="cls-12" points="255.76 92.17 236.58 92.17 226.05 83.78 226.05 64.74 237.51 56.01 255.76 56.01"/>
          <polygon class="cls-12" points="279.68 99.76 260.21 99.76 252.6 88.88 252.6 59.41 259.85 48.92 279.68 48.92 279.68 99.76"/>
          <rect class="cls-12" x="270.75" y="57.85" width="50.84" height="32.99" transform="translate(221.83 370.52) rotate(-90)"/>
          <path class="cls-12" d="M301.74,72.06h46.42v3.01c0,.86-.7,1.55-1.55,1.55h-43.18c-.93,0-1.68-.75-1.68-1.68v-2.88h0Z" transform="translate(250.61 399.29) rotate(-90)"/>
          <rect class="cls-12" x="294.46" y="69.34" width="46.42" height="10" transform="translate(243.33 392.01) rotate(-90)"/>
          <rect class="cls-12" x="275.35" y="57.85" width="41.66" height="32.99" transform="translate(221.83 370.52) rotate(-90)"/>
          <polygon class="cls-12" points="279.68 92.14 272.14 92.14 266.17 86.36 266.17 62.33 272.02 56.55 279.68 56.55 279.68 92.14"/>
          <polygon class="cls-12" points="369.11 86.18 379.75 86.18 384.78 79.24 384.78 68.77 379.87 61.89 369.11 61.89 369.11 86.18"/>
          <g>
            <ellipse class="cls-5" cx="365.53" cy="74.03" rx="13" ry="12.6"/>
            <ellipse class="cls-10" cx="365.53" cy="74.03" rx="10.43" ry="10.1"/>
          </g>
          <g>
            <ellipse class="cls-4" cx="360.76" cy="45.62" rx="10.13" ry="9.82"/>
            <ellipse class="cls-9" cx="360.76" cy="45.62" rx="8.13" ry="7.88"/>
          </g>
          <g>
            <ellipse class="cls-4" cx="360.76" cy="101.53" rx="10.13" ry="9.82"/>
            <ellipse class="cls-9" cx="360.76" cy="101.53" rx="8.13" ry="7.88"/>
          </g>
          <polyline class="cls-11" points="402.83 106.85 411.37 90.41 414.41 90.41 414.41 57.88 411.49 57.88 402.7 40.31"/>
          <polyline class="cls-11" points="399.52 106.85 408.06 90.41 411.1 90.41 411.1 57.88 408.18 57.88 399.4 40.31"/>
          <line class="cls-5" x1="411.1" y1="87.31" x2="414.41" y2="87.31"/>
          <line class="cls-5" x1="411.1" y1="84.29" x2="414.41" y2="84.29"/>
          <line class="cls-5" x1="411.1" y1="81.29" x2="414.41" y2="81.29"/>
          <line class="cls-5" x1="411.1" y1="78.68" x2="414.41" y2="78.68"/>
          <line class="cls-5" x1="411.1" y1="75.22" x2="414.41" y2="75.22"/>
          <line class="cls-5" x1="411.1" y1="72.43" x2="414.41" y2="72.43"/>
          <line class="cls-5" x1="411.1" y1="69.33" x2="414.41" y2="69.33"/>
          <line class="cls-5" x1="411.1" y1="66.83" x2="414.41" y2="66.83"/>
          <line class="cls-5" x1="411.1" y1="63.83" x2="414.41" y2="63.83"/>
          <line class="cls-5" x1="411.1" y1="61.04" x2="414.41" y2="61.04"/>
          <line class="cls-5" x1="406.9" y1="55.43" x2="410.21" y2="55.43"/>
          <line class="cls-5" x1="405.59" y1="52.41" x2="408.9" y2="52.41"/>
          <line class="cls-5" x1="404.04" y1="49.41" x2="407.35" y2="49.41"/>
          <line class="cls-5" x1="402.6" y1="46.8" x2="405.91" y2="46.8"/>
          <line class="cls-5" x1="401.38" y1="44.3" x2="404.68" y2="44.3"/>
          <line class="cls-5" x1="400.35" y1="42.12" x2="403.66" y2="42.12"/>
          <line class="cls-5" x1="406.76" y1="92.79" x2="410.07" y2="92.79"/>
          <line class="cls-5" x1="405.49" y1="95.47" x2="408.79" y2="95.47"/>
          <line class="cls-5" x1="404.35" y1="97.68" x2="407.65" y2="97.68"/>
          <line class="cls-5" x1="403.21" y1="99.85" x2="406.51" y2="99.85"/>
          <line class="cls-5" x1="400.8" y1="104.23" x2="404.11" y2="104.23"/>
          <line class="cls-5" x1="401.94" y1="101.85" x2="405.25" y2="101.85"/>
          <g>
            <g>
              <polygon class="cls-12" points="248.98 99.76 262.08 102.03 262.08 103.96 268.63 103.96 275.65 110.42 281.5 110.42 281.5 99.76 248.98 99.76"/>
              <path class="cls-12" d="M312.32,119.94h-4.04s-9.65-7.65-16.49-8.67-10.29-.85-10.29-.85v-10.66h30.82v20.18Z"/>
            </g>
            <g>
              <polygon class="cls-12" points="248.98 48.92 262.08 46.66 262.08 44.73 268.63 44.73 275.65 38.27 281.5 38.27 281.5 48.92 248.98 48.92"/>
              <path class="cls-12" d="M312.32,28.75h-4.04s-9.65,7.65-16.49,8.67c-6.84,1.02-10.29.85-10.29.85v10.66s30.82,0,30.82,0v-20.18Z"/>
            </g>
          </g>
          <g>
            <path class="cls-12" d="M336.88,107.25l-7.02,9.01h-20.35s-4.74-5.44-4.74-5.44v-10.88s8.13.03,8.13.03v-2.41h12.62s1.13,0,1.51-.89l8.98,7.18v3s.88.4.88.4Z"/>
            <polyline class="cls-12" points="308.16 100.44 308.16 110.42 310.27 112.91 327.35 112.91 331.09 107.25 331.09 100.44"/>
          </g>
          <g>
            <path class="cls-12" d="M339.31,41.02l-7.16-8.56h-22.63s-4.74,5.44-4.74,5.44v10.88s8.13-.03,8.13-.03v2.41h12.62s1.13,0,1.51.89l8.54-8.91,1.67-1.84,2.08-.28Z"/>
            <polyline class="cls-12" points="308.16 48.27 308.16 38.3 310.27 35.8 327.35 35.8 331.09 41.47 331.09 47.39"/>
          </g>
          <rect class="cls-12" x="312.32" y="28.75" width="12.63" height="3.71"/>
          <rect class="cls-12" x="312.32" y="116.26" width="12.63" height="3.71"/>
        </g>
      </g>
      <g>
        <g>
          <polygon class="cls-1" points="118.06 94.28 120.75 96.62 124.26 96.62 124.26 92.06 118.06 92.06 118.06 94.28"/>
          <polygon class="cls-1" points="118.06 52.05 120.75 49.71 124.26 49.71 124.26 54.28 118.06 54.28 118.06 52.05"/>
        </g>
        <g>
          <polygon class="cls-3" points="105.8 89.68 107.86 91.47 110.54 91.47 110.54 87.98 105.8 87.98 105.8 89.68"/>
          <polygon class="cls-3" points="105.8 57.35 107.86 55.56 110.54 55.56 110.54 59.06 105.8 59.06 105.8 57.35"/>
        </g>
        <g>
          <polygon class="cls-7" points="95.18 85.01 96.61 86.25 98.47 86.25 98.47 83.83 95.18 83.83 95.18 85.01"/>
          <polygon class="cls-7" points="95.18 62.54 96.61 61.29 98.47 61.29 98.47 63.72 95.18 63.72 95.18 62.54"/>
        </g>
        <g>
          <rect class="cls-6" x="54.84" y="78" width="9.27" height="1.73"/>
          <ellipse class="cls-6" cx="53.69" cy="78.87" rx="1.56" ry="2.51"/>
          <ellipse class="cls-8" cx="65.42" cy="78.87" rx="1.8" ry="2.51"/>
        </g>
        <g>
          <rect class="cls-6" x="54.84" y="66.42" width="9.27" height="1.73"/>
          <ellipse class="cls-6" cx="53.69" cy="67.28" rx="1.56" ry="2.51"/>
          <ellipse class="cls-8" cx="65.42" cy="67.28" rx="1.8" ry="2.51"/>
        </g>
      </g>
    </g>
  </g>
</svg>