<?xml version="1.0" encoding="UTF-8"?>
<svg id="Layer_2" data-name="Layer 2" xmlns="http://www.w3.org/2000/svg" viewBox="0 0 751.61 164.37">
  <defs>
    <style>
      .cls-1, .cls-2, .cls-3, .cls-4, .cls-5, .cls-6, .cls-7, .cls-8 {
        fill: #8b9191;
      }

      .cls-1, .cls-2, .cls-3, .cls-4, .cls-5, .cls-6, .cls-7, .cls-8, .cls-9, .cls-10, .cls-11, .cls-12 {
        stroke: #000;
        stroke-miterlimit: 10;
      }

      .cls-1, .cls-10 {
        stroke-width: .82px;
      }

      .cls-2 {
        stroke-width: .48px;
      }

      .cls-3 {
        stroke-width: .51px;
      }

      .cls-4 {
        stroke-width: .5px;
      }

      .cls-5 {
        stroke-width: .73px;
      }

      .cls-6, .cls-9 {
        stroke-width: 1.05px;
      }

      .cls-7 {
        stroke-width: .95px;
      }

      .cls-8 {
        stroke-width: 1.05px;
      }

      .cls-9, .cls-10 {
        fill: #444348;
      }

      .cls-11 {
        fill: #656d72;
      }

      .cls-11, .cls-12 {
        stroke-width: 1.1px;
      }

      .cls-12 {
        fill: #7c8389;
      }
    </style>
  </defs>
  <g id="Layer_2-2" data-name="Layer 2">
    <g>
      <g>
        <g>
          <path class="cls-11" d="M28.12,83.58v2.98s1.32,0,1.32,0v2.88s4.66,0,4.66,0v2.11s5.78,0,5.78,0v1.35s5.58,0,5.58,0v2.4s5.27,0,5.27,0v.96s4.87,0,4.87,0v1.44s2.53,0,2.53,0v1.01s3.45,0,3.45,0c0,0,29.27,10.11,63.6,18.05v1.7s3.41,0,3.41,0v1.63s4.76,0,4.76,0v.96s5.27,0,5.27,0v1.35s4.46,0,4.46,0v1.06s7.1,0,7.1,0v2.02s12.98,0,12.98,0v.96s7.6,0,7.6,0v2.98s12.57,0,12.57,0v3.27s16.46,0,16.46,0v2.92s12.17,0,12.17,0v1.41s20.55,0,20.55,0v2.18s27.98,0,27.98,0v1.54s2.43,0,2.43,0v2.56s2.84,2.05,7.57,2.05c4.73,0,7.71-1.92,7.71-1.92v-2.18h2.84v4.1s0,1.41,0,1.41h22.17v3.46s25.28,0,25.28,0v3.33s6.02,0,6.02,0v1.92s61.84,0,61.84,0h165.05s0-2.88,0-2.88h88s0-2.69,0-2.69h36.7s0-2.5,0-2.5h20.88s3.95-3.75,3.95-3.75h19.36s0-2.98,0-2.98h15.82s0-2.5,0-2.5l.07-32.33,2.56-.04,2.32-.06-.21-48.98-4.67.11-.51-32.95-13.7-2.35v-1.67s-19.06-.9-19.06-.9l-5.41-3.08h-20.01v-1.67s-32.71,0-32.71,0v-1.92s-36.63,0-36.63,0v-1.79s-100.17-1.15-115.98-2.31v-1.15s-120.44,0-120.44,0h-47.04s0,3.59,0,3.59h-27.31s-5.81,3.97-5.81,3.97h-16.22s-5.95,1.67-5.95,6.02h-1.35v-1.67s-5.14-1.92-10.81,0l-4.73,4.36v2.43h-29.74s-.88.83-.88.83h-16.15s0,2.24,0,2.24h-15.27s0,2.18,0,2.18h-16.49s0,3.59,0,3.59h-13.25s0,2.31,0,2.31h-18.79s0,4.23,0,4.23h-14.46s0,2.95,0,2.95c0,0-57.18,12.17-80.97,21.14h-2.18s0,1.07,0,1.07h-5.22s0,.82,0,.82h-2.33s0,.91,0,.91v.78h-6.35s0,1.41,0,1.41h-3.85s0,1.41,0,1.41h-3.85s0,1.41,0,1.41h-1.55s0,1.54,0,1.54h-1.76s0,2.31,0,2.31h-1.62s0,3.46,0,3.46H.55s0,3.3,0,3.3l27.58-.1Z"/>
          <path class="cls-12" d="M31.1,84.68l.03-5.96h.52s0-2.48,0-2.48h1.21s0-1.26,0-1.26h1.21s0-1.4,0-1.4h3.79s0-1.58,0-1.58h3.79s0-1.35,0-1.35h6.37s0-1.13,0-1.13h2.38s0-.81,0-.81h5.21s0-1.1,0-1.1h.96s53.76-14.89,82.35-19.22v-3.18h14.36s0-4.15,0-4.15h18.88s0-3.88,0-3.88l12.81.1h17.66s.03-4.46.03-4.46l16.27-.02v-2.92h45.39s0-2.59,0-2.59l18.75-.38-.14-7.88,24.27.06v-4.1s26.16-.1,26.16-.1h3.64s0-3.94,0-3.94c0,0,89.66.48,161.12,0v2.11s115.95,1.63,115.95,1.63v2.4s36.67-.06,36.67-.06v3.79s32.49,0,32.49,0v1.45s21.71,0,21.71,0l5.66,2.65,16.52.48v1.45s15.22,2.16,15.22,2.16l.6,30.47h3.25v40.95h-3.52s.53,33.36.53,33.36v2.44h-15.88s0,2.35,0,2.35h-18.51s-4.55,3.79-4.55,3.79h-21.24s0,1.66,0,1.66h-37.01s0,2.65,0,2.65h-87.64s0,2.65,0,2.65h-220.71v-2.17s-6.88,0-6.88,0v-4.15s-23.73,0-23.73,0v-3.97s-22.45,0-22.45,0v-3.25s-7.69,0-7.69,0h-14.36v-1.26s-28.31,0-28.31,0v-2.17s-20.49,0-20.49,0v-1.93s-11.19,0-11.19,0v-2.17s-17.12,0-17.12,0v-3.49s-12.94,0-12.94,0v-2.65s-7.55,0-7.55,0v-.96s-12.54,0-12.54,0v-1.67s-7.55,0-7.55,0v-.81s-4.8,0-4.8,0v-1.17s-5.21,0-5.21,0v-1.13s-4.6,0-4.6,0v-1.26s-3.69,0-3.69,0v-2.02s-63.94-16.5-63.94-16.5h-2.9v-1.2s-2.29,0-2.29,0v-1.08s-4.45,0-4.45,0v-1.26s-5.6,0-5.6,0v-2.17s-6.07,0-6.07,0v-1.38s-5.12,0-5.12,0v-1.81s-5.06,0-5.06,0l-.03-2.97Z"/>
          <g>
            <g>
              <rect class="cls-8" x="541.29" y="16.19" width="4.61" height="7.93" transform="translate(523.44 563.75) rotate(-90)"/>
              <rect class="cls-8" x="511.66" y="13.88" width="4.61" height="7.93" transform="translate(496.13 531.82) rotate(-90)"/>
            </g>
            <rect class="cls-12" x="545.57" y="-11.3" width="8.46" height="34.21" transform="translate(543.99 555.6) rotate(-90)"/>
            <polygon class="cls-12" points="483.23 9.08 481.37 5.93 474.43 5.93 474.43 1.83 476.41 .55 502.69 .55 502.69 9.52 483.23 9.08"/>
            <line class="cls-8" x1="485.46" y1=".55" x2="490.66" y2="9.25"/>
          </g>
          <g>
            <g>
              <rect class="cls-8" x="541.29" y="137.27" width="4.61" height="7.93" transform="translate(402.36 684.83) rotate(-90)"/>
              <rect class="cls-8" x="511.66" y="138.49" width="4.61" height="7.93" transform="translate(371.52 656.43) rotate(-90)"/>
            </g>
            <rect class="cls-12" x="546.12" y="139.7" width="8.46" height="34.21" transform="translate(393.55 707.16) rotate(-90)"/>
            <polygon class="cls-12" points="482.61 155.46 480.13 158.79 474.8 158.79 474.8 162.19 477.37 163.82 502.94 163.82 502.94 155.46 482.61 155.46"/>
            <line class="cls-8" x1="485.09" y1="163.82" x2="489.83" y2="155.46"/>
          </g>
        </g>
        <g>
          <polygon class="cls-12" points="478.53 122.49 510.69 122.49 510.69 133.29 487.88 133.29 487.88 149.31 421.64 149.31 421.64 135.9 411 135.9 411 127.39 416.19 127.39 424.22 117.09 437.53 117.09 478.53 117.52 478.53 122.49"/>
          <polygon class="cls-12" points="478.53 39.58 510.69 39.58 510.69 28.77 487.88 28.77 487.88 12.76 421.64 12.76 421.64 26.17 411 26.17 411 35.6 418.18 35.6 426.54 44.98 437.53 44.98 478.53 44.54 478.53 39.58"/>
          <polygon class="cls-12" points="478.53 117.09 478.53 123.36 441.88 123.36 441.88 117.09 422.92 117.09 422.92 113.8 412.67 105.6 412.67 56.68 424.58 45.13 441.88 45.13 441.88 38.8 478.53 38.8 478.53 117.09"/>
          <path class="cls-11" d="M478.53,117.09h23.06v2.48s45.61,0,45.61,0v-3.73s0-3.21,0-3.21h25.15s1.73-6.05,5.29-8.19c3.56-2.14,6.73-4.47,6.73-14.06,0-9.59,0-21.36,0-21.36,0,0-.13-6.8-7.05-11.97-6.92-5.17-8.27-8.02-8.27-8.02h-28.12v-6.34s-39.59,0-39.59,0v1.49h-22.81s0,17.51,0,17.51h-36.01s0,5.4,0,5.4h-22.1s0,27.89,0,27.89h21.33v4.33s36.71,0,36.71,0l.06,17.76Z"/>
          <path class="cls-12" d="M540.29,104.53v17.59s21.33,0,21.33,0c0,0,3.91-8.35,3.84-17.59h-25.18Z"/>
          <path class="cls-12" d="M540.29,57.75v-17.59h21.33s3.91,8.35,3.84,17.59h-25.18Z"/>
          <polyline class="cls-12" points="340.91 109.33 314.04 109.23 294.15 89.21 294.15 71.33 313.93 53.64 340.91 53.64"/>
          <polyline class="cls-12" points="335.02 101.01 314.01 101.01 302.47 91.82 302.47 70.96 315.03 61.4 335.02 61.4"/>
          <polygon class="cls-12" points="361.22 109.33 339.89 109.33 331.56 97.41 331.56 65.12 339.5 53.64 361.22 53.64 361.22 109.33"/>
          <rect class="cls-12" x="351.44" y="63.41" width="55.69" height="36.13" transform="translate(297.81 460.77) rotate(-90)"/>
          <path class="cls-12" d="M385.39,78.98h50.85v3.29c0,.94-.76,1.7-1.7,1.7h-47.3c-1.02,0-1.84-.83-1.84-1.84v-3.15h0Z" transform="translate(329.33 492.29) rotate(-90)"/>
          <rect class="cls-12" x="377.41" y="76" width="50.85" height="10.96" transform="translate(321.35 484.31) rotate(-90)"/>
          <rect class="cls-12" x="356.47" y="63.41" width="45.63" height="36.13" transform="translate(297.81 460.77) rotate(-90)"/>
          <polygon class="cls-12" points="361.22 100.98 352.96 100.98 346.42 94.64 346.42 68.32 352.83 61.99 361.22 61.99 361.22 100.98"/>
          <polygon class="cls-12" points="459.18 94.44 470.84 94.44 476.35 86.84 476.35 75.38 470.97 67.84 459.18 67.84 459.18 94.44"/>
          <g>
            <ellipse class="cls-6" cx="455.26" cy="81.14" rx="14.24" ry="13.8"/>
            <ellipse class="cls-9" cx="455.26" cy="81.14" rx="11.42" ry="11.07"/>
          </g>
          <g>
            <ellipse class="cls-6" cx="424.98" cy="81.14" rx="14.24" ry="13.8"/>
            <ellipse class="cls-9" cx="424.98" cy="81.14" rx="11.42" ry="11.07"/>
          </g>
          <g>
            <ellipse class="cls-1" cx="450.03" cy="50.02" rx="11.1" ry="10.76"/>
            <ellipse class="cls-10" cx="450.03" cy="50.02" rx="8.9" ry="8.63"/>
          </g>
          <g>
            <ellipse class="cls-1" cx="450.03" cy="111.26" rx="11.1" ry="10.76"/>
            <ellipse class="cls-10" cx="450.03" cy="111.26" rx="8.9" ry="8.63"/>
          </g>
          <polyline class="cls-11" points="496.12 117.09 505.47 99.08 508.8 99.08 508.8 63.45 505.6 63.45 495.98 44.2"/>
          <polyline class="cls-11" points="492.5 117.09 501.85 99.08 505.18 99.08 505.18 63.45 501.98 63.45 492.36 44.2"/>
          <line class="cls-6" x1="505.18" y1="95.68" x2="508.8" y2="95.68"/>
          <line class="cls-6" x1="505.18" y1="92.38" x2="508.8" y2="92.38"/>
          <line class="cls-6" x1="505.18" y1="89.09" x2="508.8" y2="89.09"/>
          <line class="cls-6" x1="505.18" y1="86.23" x2="508.8" y2="86.23"/>
          <line class="cls-6" x1="505.18" y1="82.44" x2="508.8" y2="82.44"/>
          <line class="cls-6" x1="505.18" y1="79.39" x2="508.8" y2="79.39"/>
          <line class="cls-6" x1="505.18" y1="75.99" x2="508.8" y2="75.99"/>
          <line class="cls-6" x1="505.18" y1="73.25" x2="508.8" y2="73.25"/>
          <line class="cls-6" x1="505.18" y1="69.96" x2="508.8" y2="69.96"/>
          <line class="cls-6" x1="505.18" y1="66.91" x2="508.8" y2="66.91"/>
          <line class="cls-6" x1="500.58" y1="60.76" x2="504.2" y2="60.76"/>
          <line class="cls-6" x1="499.14" y1="57.45" x2="502.76" y2="57.45"/>
          <line class="cls-6" x1="497.44" y1="54.16" x2="501.06" y2="54.16"/>
          <line class="cls-6" x1="495.87" y1="51.31" x2="499.5" y2="51.31"/>
          <line class="cls-6" x1="494.53" y1="48.58" x2="498.15" y2="48.58"/>
          <line class="cls-6" x1="493.4" y1="46.19" x2="497.03" y2="46.19"/>
          <line class="cls-6" x1="500.42" y1="101.69" x2="504.05" y2="101.69"/>
          <line class="cls-6" x1="499.03" y1="104.62" x2="502.65" y2="104.62"/>
          <line class="cls-6" x1="497.78" y1="107.04" x2="501.4" y2="107.04"/>
          <line class="cls-6" x1="496.53" y1="109.42" x2="500.15" y2="109.42"/>
          <line class="cls-6" x1="493.9" y1="114.22" x2="497.52" y2="114.22"/>
          <line class="cls-6" x1="495.15" y1="111.61" x2="498.77" y2="111.61"/>
          <g>
            <g>
              <polygon class="cls-12" points="327.59 109.33 341.94 111.81 341.94 113.92 349.11 113.92 356.8 121 363.21 121 363.21 109.33 327.59 109.33"/>
              <path class="cls-12" d="M396.97,131.43h-4.42s-10.57-8.38-18.07-9.5c-7.5-1.12-11.28-.93-11.28-.93v-11.67h33.76v22.1Z"/>
            </g>
            <g>
              <polygon class="cls-12" points="327.59 53.64 341.94 51.15 341.94 49.04 349.11 49.04 356.8 41.96 363.21 41.96 363.21 53.64 327.59 53.64"/>
              <path class="cls-12" d="M396.97,31.53h-4.42s-10.57,8.38-18.07,9.5c-7.5,1.12-11.28.93-11.28.93v11.67s33.76,0,33.76,0v-22.1Z"/>
            </g>
          </g>
          <g>
            <path class="cls-12" d="M423.88,117.52l-7.69,9.87h-22.29s-5.19-5.96-5.19-5.96v-11.92s8.91.03,8.91.03v-2.64h13.82s1.23,0,1.65-.97l9.83,7.86v3.29s.96.43.96.43Z"/>
            <polyline class="cls-12" points="392.42 110.07 392.42 121 394.73 123.73 413.44 123.73 417.54 117.52 417.54 110.07"/>
          </g>
          <g>
            <path class="cls-12" d="M426.54,44.98l-7.85-9.37h-24.79s-5.19,5.96-5.19,5.96v11.92s8.91-.03,8.91-.03v2.64h13.82s1.23,0,1.65.97l9.35-9.76,1.83-2.02,2.27-.31Z"/>
            <polyline class="cls-12" points="392.42 52.92 392.42 42 394.73 39.27 413.44 39.27 417.54 45.47 417.54 51.96"/>
          </g>
          <rect class="cls-12" x="396.97" y="31.53" width="13.84" height="4.07"/>
          <rect class="cls-12" x="396.97" y="127.39" width="13.84" height="4.07"/>
        </g>
      </g>
      <g>
        <g>
          <polygon class="cls-7" points="133.17 104.64 136.11 107.2 139.96 107.2 139.96 102.2 133.17 102.2 133.17 104.64"/>
          <polygon class="cls-7" points="133.17 58.38 136.11 55.82 139.96 55.82 139.96 60.82 133.17 60.82 133.17 58.38"/>
        </g>
        <g>
          <polygon class="cls-5" points="119.74 99.6 121.99 101.56 124.94 101.56 124.94 97.74 119.74 97.74 119.74 99.6"/>
          <polygon class="cls-5" points="119.74 64.19 121.99 62.23 124.94 62.23 124.94 66.05 119.74 66.05 119.74 64.19"/>
        </g>
        <g>
          <polygon class="cls-4" points="108.1 94.48 109.67 95.85 111.72 95.85 111.72 93.19 108.1 93.19 108.1 94.48"/>
          <polygon class="cls-4" points="108.1 69.87 109.67 68.51 111.72 68.51 111.72 71.17 108.1 71.17 108.1 69.87"/>
        </g>
        <g>
          <rect class="cls-2" x="63.92" y="86.81" width="10.16" height="1.89"/>
          <ellipse class="cls-2" cx="62.65" cy="87.75" rx="1.7" ry="2.74"/>
          <ellipse class="cls-3" cx="75.5" cy="87.75" rx="1.98" ry="2.74"/>
        </g>
        <g>
          <rect class="cls-2" x="63.92" y="74.12" width="10.16" height="1.89"/>
          <ellipse class="cls-2" cx="62.65" cy="75.06" rx="1.7" ry="2.74"/>
          <ellipse class="cls-3" cx="75.5" cy="75.06" rx="1.98" ry="2.74"/>
        </g>
      </g>
    </g>
  </g>
</svg>