<?xml version="1.0" encoding="UTF-8"?>
<svg id="Layer_2" data-name="Layer 2" xmlns="http://www.w3.org/2000/svg" viewBox="0 0 472.33 146.72">
  <defs>
    <style>
      .cls-1 {
        fill: #8e8886;
      }

      .cls-1, .cls-2, .cls-3, .cls-4, .cls-5 {
        stroke: #000;
        stroke-miterlimit: 10;
      }

      .cls-1, .cls-5 {
        stroke-width: .82px;
      }

      .cls-2 {
        stroke-width: .82px;
      }

      .cls-2, .cls-3 {
        fill: #8b9191;
      }

      .cls-3, .cls-4 {
        stroke-width: .94px;
      }

      .cls-4 {
        fill: #444348;
      }

      .cls-5 {
        fill: #7c7674;
      }
    </style>
  </defs>
  <g id="Layer_2-2" data-name="Layer 2">
    <g>
      <g>
        <path class="cls-5" d="M17.74,74.6v2.66s.83,0,.83,0v2.58s2.93,0,2.93,0v1.89s3.63,0,3.63,0v1.2s3.5,0,3.5,0v2.15s3.31,0,3.31,0v.86s3.06,0,3.06,0v1.29s1.59,0,1.59,0v.9s2.17,0,2.17,0c0,0,18.39,9.03,39.96,16.13v1.52s2.14,0,2.14,0v1.46s2.99,0,2.99,0v.86s3.31,0,3.31,0v1.2s2.8,0,2.8,0v.94s4.46,0,4.46,0v1.8s8.15,0,8.15,0v.86s4.78,0,4.78,0v2.66s7.9,0,7.9,0v2.92s10.34,0,10.34,0v2.6s7.64,0,7.64,0v1.26s12.91,0,12.91,0v1.95s17.58,0,17.58,0v1.37s1.53,0,1.53,0v2.29s1.78,1.83,4.76,1.83c2.97,0,4.84-1.72,4.84-1.72v-1.95h1.78v3.66s0,1.26,0,1.26h13.93v3.09s15.88,0,15.88,0v2.98s3.78,0,3.78,0v1.72s38.85,0,38.85,0h103.69s0-2.58,0-2.58h55.29s0-2.4,0-2.4h23.06s0-2.23,0-2.23h13.12s2.48-3.35,2.48-3.35h12.17s0-2.66,0-2.66h9.94s0-2.23,0-2.23l.05-28.89,1.61-.04,1.46-.05-.13-43.77-2.93.1-.32-29.44-8.6-2.1v-1.49s-11.97-.8-11.97-.8l-3.4-2.75h-12.57v-1.49s-20.55,0-20.55,0v-1.72s-23.01,0-23.01,0v-1.6s-62.93-1.03-72.86-2.06v-1.03s-75.67,0-75.67,0h-29.55s0,3.21,0,3.21h-17.15s-3.65,3.55-3.65,3.55h-10.19s-3.74,1.49-3.74,5.38h-.85v-1.49s-3.23-1.72-6.79,0l-2.97,3.89v2.18h-18.68s-.55.74-.55.74h-10.15s0,2,0,2h-9.6s0,1.95,0,1.95h-10.36s0,3.21,0,3.21h-8.32s0,2.06,0,2.06h-11.8s0,3.78,0,3.78h-9.09s0,2.63,0,2.63c0,0-35.92,10.88-50.87,18.89h-1.37s0,.96,0,.96h-3.28s0,.73,0,.73h-1.46s0,.82,0,.82v.7h-3.99s0,1.26,0,1.26h-2.42s0,1.26,0,1.26h-2.42s0,1.26,0,1.26h-.98s0,1.37,0,1.37h-1.1s0,2.06,0,2.06h-1.02s0,3.09,0,3.09H.41s0,2.95,0,2.95l17.32-.09Z"/>
        <path class="cls-1" d="M19.6,75.59l.02-5.33h.33s0-2.22,0-2.22h.76s0-1.13,0-1.13h.76s0-1.25,0-1.25h2.38s0-1.41,0-1.41h2.38s0-1.21,0-1.21h4s0-1.01,0-1.01h1.49s0-.73,0-.73h3.27s0-.98,0-.98h.6s33.78-13.3,51.73-17.18v-2.84h9.02s0-3.71,0-3.71h11.86s0-3.47,0-3.47l8.05.09h11.09s.02-3.99.02-3.99l10.22-.02v-2.6h28.52s0-2.32,0-2.32l11.78-.34-.09-7.04,15.25.06v-3.66s16.43-.09,16.43-.09h2.29s0-3.52,0-3.52c0,0,56.33.43,101.22,0v1.89s72.85,1.46,72.85,1.46v2.15s23.04-.06,23.04-.06v3.39s20.41,0,20.41,0v1.29s13.64,0,13.64,0l3.56,2.37,10.38.43v1.29s9.56,1.93,9.56,1.93l.38,27.23h2.04v36.59h-2.21s.33,29.81.33,29.81v2.18h-9.97s0,2.1,0,2.1h-11.63s-2.86,3.39-2.86,3.39h-13.34s0,1.48,0,1.48h-23.25s0,2.37,0,2.37h-55.06s0,2.37,0,2.37h-138.66v-1.94s-4.32,0-4.32,0v-3.71s-14.91,0-14.91,0v-3.55s-14.1,0-14.1,0v-2.91s-4.83,0-4.83,0h-9.02v-1.13s-17.79,0-17.79,0v-1.94s-12.88,0-12.88,0v-1.72s-7.03,0-7.03,0v-1.94s-10.76,0-10.76,0v-3.12s-8.13,0-8.13,0v-2.37s-4.74,0-4.74,0v-.86s-7.88,0-7.88,0v-1.49s-4.74,0-4.74,0v-.73s-3.02,0-3.02,0v-1.05s-3.27,0-3.27,0v-1.01s-2.89,0-2.89,0v-1.13s-2.32,0-2.32,0v-1.8s-40.17-14.74-40.17-14.74h-1.82v-1.08s-1.44,0-1.44,0v-.97s-2.8,0-2.8,0v-1.13s-3.52,0-3.52,0v-1.94s-3.81,0-3.81,0v-1.24s-3.22,0-3.22,0v-1.61s-3.18,0-3.18,0l-.02-2.65Z"/>
        <g>
          <g>
            <rect class="cls-2" x="366.47" y="15.24" width="4.12" height="5.38" transform="translate(350.6 386.46) rotate(-90)"/>
            <rect class="cls-2" x="346.39" y="13.18" width="4.12" height="5.38" transform="translate(332.58 364.32) rotate(-90)"/>
          </g>
          <polygon class="cls-1" points="384.33 1.33 384.33 9.27 361.14 8.88 361.14 1.33 384.33 1.33"/>
          <polygon class="cls-1" points="327.61 8.04 326.35 5.22 321.65 5.22 321.65 1.56 322.99 .41 340.8 .41 340.8 8.42 327.61 8.04"/>
          <line class="cls-2" x1="329.12" y1=".41" x2="332.65" y2="8.18"/>
        </g>
        <g>
          <g>
            <rect class="cls-2" x="366.47" y="123.44" width="4.12" height="5.38" transform="translate(242.4 494.66) rotate(-90)"/>
            <rect class="cls-2" x="346.39" y="124.53" width="4.12" height="5.38" transform="translate(221.23 475.67) rotate(-90)"/>
          </g>
          <rect class="cls-1" x="369.33" y="128.44" width="7.56" height="23.19" transform="translate(233.07 513.15) rotate(-90)"/>
          <polygon class="cls-1" points="327.19 138.84 325.51 141.81 321.9 141.81 321.9 144.85 323.64 146.31 340.97 146.31 340.97 138.84 327.19 138.84"/>
          <line class="cls-2" x1="328.87" y1="146.31" x2="332.09" y2="138.84"/>
        </g>
      </g>
      <g>
        <polygon class="cls-1" points="326.44 109.37 355.18 109.37 355.18 119.03 334.8 119.03 334.8 133.34 275.61 133.34 275.61 121.36 266.1 121.36 266.1 113.76 270.74 113.76 277.91 104.55 289.8 104.55 326.44 104.94 326.44 109.37"/>
        <polygon class="cls-1" points="326.44 35.29 355.18 35.29 355.18 25.63 334.8 25.63 334.8 11.32 275.61 11.32 275.61 23.3 266.1 23.3 266.1 31.73 272.52 31.73 279.99 40.11 289.8 40.11 326.44 39.72 326.44 35.29"/>
        <polygon class="cls-1" points="326.44 104.55 326.44 110.15 293.7 110.15 293.7 104.55 276.75 104.55 276.75 101.61 267.59 94.28 267.59 50.57 278.24 40.25 293.7 40.25 293.7 34.59 326.44 34.59 326.44 104.55"/>
        <path class="cls-5" d="M326.44,104.55h20.61v2.22s40.76,0,40.76,0v-3.33s0-2.86,0-2.86h22.47s1.55-5.4,4.72-7.32c3.18-1.91,6.01-3.99,6.01-12.57,0-8.57,0-19.08,0-19.08,0,0-.11-6.07-6.3-10.69-6.18-4.62-7.39-7.16-7.39-7.16h-25.12v-5.67s-35.38,0-35.38,0v1.33h-20.38s0,15.64,0,15.64h-32.17s0,4.83,0,4.83h-19.75s0,24.92,0,24.92h19.06v3.87s32.8,0,32.8,0l.06,15.87Z"/>
        <path class="cls-1" d="M381.63,93.33v15.71s19.06,0,19.06,0c0,0,3.49-7.46,3.43-15.71h-22.5Z"/>
        <path class="cls-1" d="M381.63,51.52v-15.71h19.06s3.49,7.46,3.43,15.71h-22.5Z"/>
        <polyline class="cls-1" points="203.47 97.61 179.46 97.53 161.68 79.64 161.68 63.66 179.37 47.86 203.47 47.85"/>
        <polyline class="cls-1" points="198.21 90.18 179.43 90.18 169.13 81.97 169.13 63.33 180.35 54.78 198.21 54.78"/>
        <polygon class="cls-1" points="221.62 97.61 202.56 97.61 195.12 86.96 195.12 58.11 202.21 47.85 221.62 47.85 221.62 97.61"/>
        <rect class="cls-1" x="212.88" y="56.59" width="49.76" height="32.29" transform="translate(165.04 310.5) rotate(-90)"/>
        <path class="cls-1" d="M243.21,70.5h45.44v2.94c0,.84-.68,1.52-1.52,1.52h-42.27c-.91,0-1.65-.74-1.65-1.65v-2.82h0Z" transform="translate(193.2 338.66) rotate(-90)"/>
        <rect class="cls-1" x="236.09" y="67.84" width="45.44" height="9.79" transform="translate(186.07 331.54) rotate(-90)"/>
        <rect class="cls-1" x="217.38" y="56.59" width="40.78" height="32.29" transform="translate(165.04 310.5) rotate(-90)"/>
        <polygon class="cls-3" points="221.62 90.15 214.24 90.15 208.4 84.49 208.4 60.97 214.12 55.31 221.62 55.31 221.62 90.15"/>
        <polygon class="cls-1" points="309.15 84.31 319.57 84.31 324.5 77.52 324.5 67.28 319.69 60.54 309.15 60.54 309.15 84.31"/>
        <g>
          <ellipse class="cls-3" cx="305.65" cy="72.43" rx="12.72" ry="12.33"/>
          <ellipse class="cls-4" cx="305.65" cy="72.43" rx="10.2" ry="9.89"/>
        </g>
        <polyline class="cls-5" points="342.16 104.55 350.52 88.46 353.5 88.46 353.5 56.61 350.63 56.61 342.04 39.42"/>
        <polyline class="cls-5" points="338.93 104.55 347.28 88.46 350.26 88.46 350.26 56.61 347.4 56.61 338.8 39.42"/>
        <line class="cls-3" x1="350.26" y1="85.42" x2="353.5" y2="85.42"/>
        <line class="cls-3" x1="350.26" y1="82.47" x2="353.5" y2="82.47"/>
        <line class="cls-3" x1="350.26" y1="79.53" x2="353.5" y2="79.53"/>
        <line class="cls-3" x1="350.26" y1="76.98" x2="353.5" y2="76.98"/>
        <line class="cls-3" x1="350.26" y1="73.59" x2="353.5" y2="73.59"/>
        <line class="cls-3" x1="350.26" y1="70.86" x2="353.5" y2="70.86"/>
        <line class="cls-3" x1="350.26" y1="67.82" x2="353.5" y2="67.82"/>
        <line class="cls-3" x1="350.26" y1="65.38" x2="353.5" y2="65.38"/>
        <line class="cls-3" x1="350.26" y1="62.44" x2="353.5" y2="62.44"/>
        <line class="cls-3" x1="350.26" y1="59.71" x2="353.5" y2="59.71"/>
        <line class="cls-3" x1="346.15" y1="54.22" x2="349.39" y2="54.22"/>
        <line class="cls-3" x1="344.86" y1="51.26" x2="348.1" y2="51.26"/>
        <line class="cls-3" x1="343.34" y1="48.32" x2="346.58" y2="48.32"/>
        <line class="cls-3" x1="341.94" y1="45.77" x2="345.18" y2="45.77"/>
        <line class="cls-3" x1="340.74" y1="43.33" x2="343.98" y2="43.33"/>
        <line class="cls-3" x1="339.74" y1="41.19" x2="342.98" y2="41.19"/>
        <line class="cls-3" x1="346.01" y1="90.79" x2="349.25" y2="90.79"/>
        <line class="cls-3" x1="344.76" y1="93.41" x2="348" y2="93.41"/>
        <line class="cls-3" x1="343.65" y1="95.57" x2="346.89" y2="95.57"/>
        <line class="cls-3" x1="342.53" y1="97.7" x2="345.77" y2="97.7"/>
        <line class="cls-3" x1="340.18" y1="101.98" x2="343.42" y2="101.98"/>
        <line class="cls-3" x1="341.3" y1="99.65" x2="344.53" y2="99.65"/>
        <g>
          <g>
            <polygon class="cls-1" points="191.57 97.61 204.39 99.83 204.39 101.72 210.8 101.72 217.67 108.04 223.4 108.04 223.4 97.61 191.57 97.61"/>
            <path class="cls-1" d="M253.57,117.36h-3.95s-9.45-7.49-16.14-8.49c-6.7-1-10.08-.83-10.08-.83v-10.43h30.17v19.75Z"/>
          </g>
          <g>
            <polygon class="cls-1" points="191.57 47.85 204.39 45.63 204.39 43.74 210.8 43.74 217.67 37.42 223.4 37.42 223.4 47.85 191.57 47.85"/>
            <path class="cls-1" d="M253.57,28.1h-3.95s-9.45,7.49-16.14,8.49c-6.7,1-10.08.83-10.08.83v10.43s30.17,0,30.17,0v-19.75Z"/>
          </g>
        </g>
        <g>
          <path class="cls-1" d="M277.61,104.94l-6.87,8.82h-19.92s-4.64-5.33-4.64-5.33v-10.65s7.96.03,7.96.03v-2.36h12.35s1.1,0,1.47-.87l8.79,7.03v2.94s.86.39.86.39Z"/>
          <polyline class="cls-1" points="249.5 98.28 249.5 108.04 251.56 110.48 268.28 110.48 271.94 104.94 271.94 98.28"/>
        </g>
        <g>
          <path class="cls-1" d="M279.99,40.11l-7.01-8.38h-22.16s-4.64,5.33-4.64,5.33v10.65s7.96-.03,7.96-.03v2.36h12.35s1.1,0,1.47.87l8.36-8.72,1.63-1.8,2.03-.28Z"/>
          <polyline class="cls-1" points="249.5 47.21 249.5 37.45 251.56 35.01 268.28 35.01 271.94 40.56 271.94 46.35"/>
        </g>
        <rect class="cls-1" x="253.57" y="28.1" width="12.37" height="3.64"/>
        <rect class="cls-1" x="253.57" y="113.76" width="12.37" height="3.64"/>
      </g>
    </g>
    <g>
      <g>
        <polygon class="cls-1" points="107.17 92.25 109.8 94.54 113.23 94.54 113.23 90.07 107.17 90.07 107.17 92.25"/>
        <polygon class="cls-1" points="107.17 50.91 109.8 48.62 113.23 48.62 113.23 53.09 107.17 53.09 107.17 50.91"/>
      </g>
      <g>
        <polygon class="cls-1" points="95.17 87.75 97.18 89.5 99.81 89.5 99.81 86.08 95.17 86.08 95.17 87.75"/>
        <polygon class="cls-1" points="95.17 56.1 97.18 54.35 99.81 54.35 99.81 57.77 95.17 57.77 95.17 56.1"/>
      </g>
      <g>
        <polygon class="cls-1" points="84.77 83.17 86.17 84.39 88 84.39 88 82.01 84.77 82.01 84.77 83.17"/>
        <polygon class="cls-1" points="84.77 61.18 86.17 59.96 88 59.96 88 62.33 84.77 62.33 84.77 61.18"/>
      </g>
      <g>
        <rect class="cls-1" x="45.29" y="76.31" width="9.08" height="1.69"/>
        <ellipse class="cls-1" cx="44.16" cy="77.16" rx="1.52" ry="2.45"/>
        <ellipse class="cls-1" cx="55.64" cy="77.16" rx="1.77" ry="2.45"/>
      </g>
      <g>
        <rect class="cls-1" x="45.29" y="64.97" width="9.08" height="1.69"/>
        <ellipse class="cls-1" cx="44.16" cy="65.82" rx="1.52" ry="2.45"/>
        <ellipse class="cls-1" cx="55.64" cy="65.82" rx="1.77" ry="2.45"/>
      </g>
    </g>
  </g>
</svg>