<?xml version="1.0" encoding="UTF-8"?>
<svg id="Layer_2" data-name="Layer 2" xmlns="http://www.w3.org/2000/svg" viewBox="0 0 103.36 60.36">
  <defs>
    <style>
      .cls-1, .cls-2 {
        fill: #7c8389;
      }

      .cls-3 {
        fill: none;
      }

      .cls-3, .cls-2 {
        stroke: #000;
        stroke-miterlimit: 10;
        stroke-width: 1.1px;
      }
    </style>
  </defs>
  <g id="Layer_2-2" data-name="Layer 2">
    <g>
      <path class="cls-2" d="M88.36,49.11h6.78s6.14-6.4,7.68-11.34v-16.68s-5.52-8.86-7.78-10.01h-7.78s0,38.03,0,38.03h1.1Z"/>
      <g>
        <g>
          <g>
            <polyline class="cls-1" points="94.36 44.41 94.36 45.9 92.54 46.93 89.56 46.93 89.56 44.41"/>
            <polyline class="cls-3" points="94.36 44.41 94.36 45.9 92.54 46.93 89.56 46.93 89.56 44.41"/>
          </g>
          <g>
            <polyline class="cls-1" points="94.36 15.64 94.36 14.14 92.54 13.12 89.56 13.12 89.56 15.64"/>
            <polyline class="cls-3" points="94.36 15.64 94.36 14.14 92.54 13.12 89.56 13.12 89.56 15.64"/>
          </g>
          <g>
            <polygon class="cls-1" points="89.56 13.12 85.81 6.79 51.79 6.79 49.96 7.72 43.24 7.72 37.86 15.64 37.86 43.48 44.49 52.61 50.16 52.61 51.79 53.57 85.91 53.57 89.56 46.93 89.56 13.12"/>
            <polygon class="cls-3" points="89.56 13.12 85.81 6.79 51.79 6.79 49.96 7.72 43.24 7.72 37.86 15.64 37.86 43.48 44.49 52.61 50.16 52.61 51.79 53.57 85.91 53.57 89.56 46.93 89.56 13.12"/>
          </g>
          <g>
            <polygon class="cls-1" points="87.25 15.64 95.13 15.64 97.82 21.97 97.82 39.66 95.13 44.41 87.25 44.41 87.25 15.64"/>
            <polygon class="cls-3" points="87.25 15.64 95.13 15.64 97.82 21.97 97.82 39.66 95.13 44.41 87.25 44.41 87.25 15.64"/>
          </g>
          <line class="cls-2" x1="95.13" y1="15.64" x2="95.13" y2="44.41"/>
        </g>
        <g>
          <g>
            <polygon class="cls-1" points="87.25 15.48 84.24 9.3 54.51 9.3 51.95 10.51 45.42 10.51 41.44 16.21 41.44 41.65 46.31 49.38 52.56 49.38 54.58 50.56 83.79 50.56 87.25 44.41 87.25 15.48"/>
            <polygon class="cls-3" points="87.25 15.48 84.24 9.3 54.51 9.3 51.95 10.51 45.42 10.51 41.44 16.21 41.44 41.65 46.31 49.38 52.56 49.38 54.58 50.56 83.79 50.56 87.25 44.41 87.25 15.48"/>
          </g>
          <g>
            <g>
              <polygon class="cls-1" points="37.86 15.64 32.35 19.86 32.35 40.03 37.86 43.48 37.86 15.64"/>
              <polygon class="cls-3" points="37.86 15.64 32.35 19.86 32.35 40.03 37.86 43.48 37.86 15.64"/>
            </g>
            <g>
              <rect class="cls-2" x="50.16" y="14.77" width="7.69" height="12.67" rx="1.84" ry="1.84"/>
              <rect class="cls-2" x="50.16" y="31.78" width="7.69" height="12.67" rx="1.84" ry="1.84"/>
            </g>
            <g>
              <g>
                <path class="cls-1" d="M1.47,25.2l-.57-1.85c-.51-1.66-.47-3.44.12-5.08l.45-1.27h50.23v8.2H1.47Z"/>
                <path class="cls-3" d="M1.47,25.2l-.57-1.85c-.51-1.66-.47-3.44.12-5.08l.45-1.27h50.23v8.2H1.47Z"/>
              </g>
              <polygon class="cls-2" points="51.69 17 53.94 17 55.35 18.24 55.35 23.92 53.94 25.2 51.69 25.2 51.69 17"/>
            </g>
            <g>
              <g>
                <path class="cls-1" d="M1.47,42.21l-.39-1.14c-.66-1.92-.66-4,0-5.92l.39-1.14h50.23v8.2H1.47Z"/>
                <path class="cls-3" d="M1.47,42.21l-.39-1.14c-.66-1.92-.66-4,0-5.92l.39-1.14h50.23v8.2H1.47Z"/>
              </g>
              <polygon class="cls-2" points="51.69 34.01 53.94 34.01 55.35 35.25 55.35 40.93 53.94 42.21 51.69 42.21 51.69 34.01"/>
            </g>
            <g>
              <rect class="cls-1" x="63.23" y=".55" width="12.59" height="6.24"/>
              <rect class="cls-3" x="63.23" y=".55" width="12.59" height="6.24"/>
            </g>
            <g>
              <rect class="cls-1" x="63.23" y="53.57" width="12.59" height="6.24"/>
              <rect class="cls-3" x="63.23" y="53.57" width="12.59" height="6.24"/>
            </g>
          </g>
        </g>
      </g>
    </g>
  </g>
</svg>