<?xml version="1.0" encoding="UTF-8"?>
<svg id="Layer_2" data-name="Layer 2" xmlns="http://www.w3.org/2000/svg" viewBox="0 0 87.74 53.78">
  <defs>
    <style>
      .cls-1, .cls-2 {
        fill: #8e8886;
      }

      .cls-1, .cls-3 {
        stroke: #000;
        stroke-miterlimit: 10;
        stroke-width: .82px;
      }

      .cls-3 {
        fill: none;
      }
    </style>
  </defs>
  <g id="Layer_2-2" data-name="Layer 2">
    <g>
      <g>
        <g>
          <polyline class="cls-2" points="84.24 39.6 84.24 40.94 82.61 41.85 79.95 41.85 79.95 39.6"/>
          <polyline class="cls-3" points="84.24 39.6 84.24 40.94 82.61 41.85 79.95 41.85 79.95 39.6"/>
        </g>
        <g>
          <polyline class="cls-2" points="84.24 13.89 84.24 12.56 82.61 11.64 79.95 11.64 79.95 13.89"/>
          <polyline class="cls-3" points="84.24 13.89 84.24 12.56 82.61 11.64 79.95 11.64 79.95 13.89"/>
        </g>
        <g>
          <polygon class="cls-2" points="79.95 11.64 76.6 5.99 46.2 5.99 44.57 6.82 38.56 6.82 33.75 13.89 33.75 38.77 39.67 46.93 44.74 46.93 46.2 47.79 76.68 47.79 79.95 41.85 79.95 11.64"/>
          <polygon class="cls-3" points="79.95 11.64 76.6 5.99 46.2 5.99 44.57 6.82 38.56 6.82 33.75 13.89 33.75 38.77 39.67 46.93 44.74 46.93 46.2 47.79 76.68 47.79 79.95 41.85 79.95 11.64"/>
        </g>
        <g>
          <polygon class="cls-2" points="77.89 13.89 84.93 13.89 87.33 19.55 87.33 35.36 84.93 39.6 77.89 39.6 77.89 13.89"/>
          <polygon class="cls-3" points="77.89 13.89 84.93 13.89 87.33 19.55 87.33 35.36 84.93 39.6 77.89 39.6 77.89 13.89"/>
        </g>
        <line class="cls-1" x1="84.93" y1="13.89" x2="84.93" y2="39.6"/>
      </g>
      <g>
        <g>
          <polygon class="cls-2" points="77.89 13.75 75.2 8.23 48.63 8.23 46.34 9.32 40.5 9.32 36.95 14.4 36.95 37.14 41.31 44.04 46.89 44.04 48.69 45.1 74.8 45.1 77.89 39.6 77.89 13.75"/>
          <polygon class="cls-3" points="77.89 13.75 75.2 8.23 48.63 8.23 46.34 9.32 40.5 9.32 36.95 14.4 36.95 37.14 41.31 44.04 46.89 44.04 48.69 45.1 74.8 45.1 77.89 39.6 77.89 13.75"/>
        </g>
        <g>
          <g>
            <polygon class="cls-2" points="33.75 13.89 28.83 17.66 28.83 35.7 33.75 38.77 33.75 13.89"/>
            <polygon class="cls-3" points="33.75 13.89 28.83 17.66 28.83 35.7 33.75 38.77 33.75 13.89"/>
          </g>
          <g>
            <rect class="cls-1" x="44.74" y="13.12" width="6.87" height="11.32" rx="1.65" ry="1.65"/>
            <rect class="cls-1" x="44.74" y="28.32" width="6.87" height="11.32" rx="1.65" ry="1.65"/>
          </g>
          <g>
            <g>
              <path class="cls-2" d="M1.23,22.44l-.51-1.66c-.45-1.49-.42-3.07.1-4.54l.4-1.13h44.88v7.32H1.23Z"/>
              <path class="cls-3" d="M1.23,22.44l-.51-1.66c-.45-1.49-.42-3.07.1-4.54l.4-1.13h44.88v7.32H1.23Z"/>
            </g>
            <polygon class="cls-1" points="46.11 15.11 48.12 15.11 49.38 16.22 49.38 21.3 48.12 22.44 46.11 22.44 46.11 15.11"/>
          </g>
          <g>
            <g>
              <path class="cls-2" d="M1.23,37.64l-.35-1.02c-.59-1.72-.59-3.57,0-5.29l.35-1.02h44.88v7.32H1.23Z"/>
              <path class="cls-3" d="M1.23,37.64l-.35-1.02c-.59-1.72-.59-3.57,0-5.29l.35-1.02h44.88v7.32H1.23Z"/>
            </g>
            <polygon class="cls-1" points="46.11 30.31 48.12 30.31 49.38 31.42 49.38 36.5 48.12 37.64 46.11 37.64 46.11 30.31"/>
          </g>
          <g>
            <rect class="cls-2" x="56.42" y=".41" width="11.25" height="5.58"/>
            <rect class="cls-3" x="56.42" y=".41" width="11.25" height="5.58"/>
          </g>
          <g>
            <rect class="cls-2" x="56.42" y="47.79" width="11.25" height="5.58"/>
            <rect class="cls-3" x="56.42" y="47.79" width="11.25" height="5.58"/>
          </g>
        </g>
      </g>
    </g>
  </g>
</svg>