<?xml version="1.0" encoding="UTF-8"?>
<svg id="Layer_2" data-name="Layer 2" xmlns="http://www.w3.org/2000/svg" viewBox="0 0 89.72 55.02">
  <defs>
    <style>
      .cls-1 {
        fill: none;
      }

      .cls-1, .cls-2 {
        stroke: #000;
        stroke-miterlimit: 10;
        stroke-width: .92px;
      }

      .cls-2, .cls-3 {
        fill: #7c8986;
      }
    </style>
  </defs>
  <g id="Layer_2-2" data-name="Layer 2">
    <g>
      <g>
        <g>
          <polyline class="cls-3" points="86.1 40.5 86.1 41.86 84.44 42.8 81.72 42.8 81.72 40.5"/>
          <polyline class="cls-1" points="86.1 40.5 86.1 41.86 84.44 42.8 81.72 42.8 81.72 40.5"/>
        </g>
        <g>
          <polyline class="cls-3" points="86.1 14.23 86.1 12.87 84.44 11.93 81.72 11.93 81.72 14.23"/>
          <polyline class="cls-1" points="86.1 14.23 86.1 12.87 84.44 11.93 81.72 11.93 81.72 14.23"/>
        </g>
        <g>
          <polygon class="cls-3" points="81.72 11.93 78.3 6.16 47.24 6.16 45.57 7.01 39.43 7.01 34.52 14.23 34.52 39.65 40.57 47.98 45.75 47.98 47.24 48.86 78.38 48.86 81.72 42.8 81.72 11.93"/>
          <polygon class="cls-1" points="81.72 11.93 78.3 6.16 47.24 6.16 45.57 7.01 39.43 7.01 34.52 14.23 34.52 39.65 40.57 47.98 45.75 47.98 47.24 48.86 78.38 48.86 81.72 42.8 81.72 11.93"/>
        </g>
        <g>
          <polygon class="cls-3" points="79.61 14.23 86.81 14.23 89.26 20.01 89.26 36.17 86.81 40.5 79.61 40.5 79.61 14.23"/>
          <polygon class="cls-1" points="79.61 14.23 86.81 14.23 89.26 20.01 89.26 36.17 86.81 40.5 79.61 40.5 79.61 14.23"/>
        </g>
        <line class="cls-2" x1="86.81" y1="14.23" x2="86.81" y2="40.5"/>
      </g>
      <g>
        <g>
          <polygon class="cls-3" points="79.61 14.09 76.86 8.45 49.72 8.45 47.39 9.56 41.42 9.56 37.79 14.76 37.79 37.98 42.24 45.04 47.94 45.04 49.78 46.11 76.45 46.11 79.61 40.5 79.61 14.09"/>
          <polygon class="cls-1" points="79.61 14.09 76.86 8.45 49.72 8.45 47.39 9.56 41.42 9.56 37.79 14.76 37.79 37.98 42.24 45.04 47.94 45.04 49.78 46.11 76.45 46.11 79.61 40.5 79.61 14.09"/>
        </g>
        <g>
          <g>
            <polygon class="cls-3" points="34.52 14.23 29.49 18.09 29.49 36.51 34.52 39.65 34.52 14.23"/>
            <polygon class="cls-1" points="34.52 14.23 29.49 18.09 29.49 36.51 34.52 39.65 34.52 14.23"/>
          </g>
          <g>
            <rect class="cls-2" x="45.75" y="13.44" width="7.02" height="11.56" rx="1.68" ry="1.68"/>
            <rect class="cls-2" x="45.75" y="28.97" width="7.02" height="11.56" rx="1.68" ry="1.68"/>
          </g>
          <g>
            <g>
              <path class="cls-3" d="M1.3,22.96l-.52-1.69c-.46-1.52-.43-3.14.11-4.63l.41-1.16h45.85v7.48H1.3Z"/>
              <path class="cls-1" d="M1.3,22.96l-.52-1.69c-.46-1.52-.43-3.14.11-4.63l.41-1.16h45.85v7.48H1.3Z"/>
            </g>
            <polygon class="cls-2" points="47.15 15.48 49.2 15.48 50.49 16.61 50.49 21.8 49.2 22.96 47.15 22.96 47.15 15.48"/>
          </g>
          <g>
            <g>
              <path class="cls-3" d="M1.3,38.49l-.36-1.04c-.6-1.75-.6-3.65,0-5.41l.36-1.04h45.85v7.48H1.3Z"/>
              <path class="cls-1" d="M1.3,38.49l-.36-1.04c-.6-1.75-.6-3.65,0-5.41l.36-1.04h45.85v7.48H1.3Z"/>
            </g>
            <polygon class="cls-2" points="47.15 31.01 49.2 31.01 50.49 32.14 50.49 37.33 49.2 38.49 47.15 38.49 47.15 31.01"/>
          </g>
          <g>
            <rect class="cls-3" x="57.68" y=".46" width="11.49" height="5.7"/>
            <rect class="cls-1" x="57.68" y=".46" width="11.49" height="5.7"/>
          </g>
          <g>
            <rect class="cls-3" x="57.68" y="48.86" width="11.49" height="5.7"/>
            <rect class="cls-1" x="57.68" y="48.86" width="11.49" height="5.7"/>
          </g>
        </g>
      </g>
    </g>
  </g>
</svg>